<?xml version="1.0" encoding="UTF-8" standalone="no"?>
<!DOCTYPE svg PUBLIC "-//W3C//DTD SVG 1.1//EN"
 "http://www.w3.org/Graphics/SVG/1.1/DTD/svg11.dtd">
<!-- Generated by graphviz version 2.38.0 (20140413.2041)
 -->
<!-- Title: %3 Pages: 1 -->
<svg width="1504pt" height="429pt"
 viewBox="0.00 0.00 1503.98 429.00" xmlns="http://www.w3.org/2000/svg" xmlns:xlink="http://www.w3.org/1999/xlink">
<g id="graph0" class="graph" transform="scale(1 1) rotate(0) translate(4 425)">
<title>%3</title>
<polygon fill="white" stroke="none" points="-4,4 -4,-425 1499.98,-425 1499.98,4 -4,4"/>
<g id="clust1" class="cluster"><title>cluster_collection</title>
<polygon fill="none" stroke="black" points="545.83,-230 545.83,-377 1260.83,-377 1260.83,-230 545.83,-230"/>
<text text-anchor="middle" x="903.33" y="-361.8" font-family="Times,serif" font-size="14.00">Data collection and analysis</text>
</g>
<g id="clust2" class="cluster"><title>cluster_decision</title>
<polygon fill="none" stroke="black" points="888.83,-147 888.83,-222 1155.83,-222 1155.83,-147 888.83,-147"/>
<text text-anchor="middle" x="1022.33" y="-206.8" font-family="Times,serif" font-size="14.00">Decision making</text>
</g>
<g id="clust3" class="cluster"><title>cluster_action</title>
<polygon fill="none" stroke="black" points="325.83,-64 325.83,-139 825.83,-139 825.83,-64 325.83,-64"/>
<text text-anchor="middle" x="575.83" y="-123.8" font-family="Times,serif" font-size="14.00">Action</text>
</g>
<!-- Monasca -->
<g id="node1" class="node"><title>Monasca</title>
<ellipse fill="none" stroke="black" cx="1167.83" cy="-256" rx="44.393" ry="18"/>
<text text-anchor="middle" x="1167.83" y="-252.3" font-family="Times,serif" font-size="14.00">Monasca</text>
</g>
<!-- Congress -->
<g id="node9" class="node"><title>Congress</title>
<ellipse fill="none" stroke="black" cx="1102.83" cy="-173" rx="45.4919" ry="18"/>
<text text-anchor="middle" x="1102.83" y="-169.3" font-family="Times,serif" font-size="14.00">Congress</text>
</g>
<!-- Monasca&#45;&gt;Congress -->
<g id="edge37" class="edge"><title>Monasca&#45;&gt;Congress</title>
<path fill="none" stroke="black" d="M1159.95,-238.217C1151.78,-226.397 1139.16,-210.417 1127.75,-197.355"/>
<polygon fill="black" stroke="black" points="1130.14,-194.776 1120.86,-189.663 1124.93,-199.447 1130.14,-194.776"/>
</g>
<!-- Freezer&#45;DR -->
<g id="node15" class="node"><title>Freezer&#45;DR</title>
<ellipse fill="none" stroke="black" cx="464.83" cy="-90" rx="55.4913" ry="18"/>
<text text-anchor="middle" x="464.83" y="-86.3" font-family="Times,serif" font-size="14.00">Freezer&#45;DR</text>
</g>
<!-- Monasca&#45;&gt;Freezer&#45;DR -->
<g id="edge56" class="edge"><title>Monasca&#45;&gt;Freezer&#45;DR</title>
<path fill="none" stroke="black" d="M1123.61,-255.311C987.279,-255.913 579.674,-254.914 530.83,-222 500.325,-201.444 512.525,-179.777 495.83,-147 490.761,-137.049 484.895,-126.28 479.638,-116.869"/>
<polygon fill="black" stroke="black" points="482.594,-114.987 474.636,-107.992 476.496,-118.423 482.594,-114.987"/>
</g>
<!-- Watcher -->
<g id="node19" class="node"><title>Watcher</title>
<ellipse fill="none" stroke="black" cx="1312.83" cy="-328" rx="42.4939" ry="18"/>
<text text-anchor="middle" x="1312.83" y="-324.3" font-family="Times,serif" font-size="14.00">Watcher</text>
</g>
<!-- Monasca&#45;&gt;Watcher -->
<g id="edge5" class="edge"><title>Monasca&#45;&gt;Watcher</title>
<path fill="none" stroke="black" d="M1195.11,-270.17C1218.16,-281.299 1251.37,-297.328 1276.64,-309.528"/>
<polygon fill="black" stroke="black" points="1275.37,-312.802 1285.9,-313.998 1278.41,-306.498 1275.37,-312.802"/>
</g>
<!-- Aodh -->
<g id="node2" class="node"><title>Aodh</title>
<ellipse fill="none" stroke="black" cx="994.83" cy="-328" rx="31.6951" ry="18"/>
<text text-anchor="middle" x="994.83" y="-324.3" font-family="Times,serif" font-size="14.00">Aodh</text>
</g>
<!-- Aodh&#45;&gt;Congress -->
<g id="edge27" class="edge"><title>Aodh&#45;&gt;Congress</title>
<path fill="none" stroke="black" d="M1018.73,-315.784C1024.24,-313.565 1030.16,-311.469 1035.83,-310 1103.82,-292.378 1303.08,-326.416 1349.83,-274 1407.87,-208.924 1246.55,-185.466 1157.42,-177.619"/>
<polygon fill="black" stroke="black" points="1157.71,-174.131 1147.45,-176.779 1157.12,-181.106 1157.71,-174.131"/>
</g>
<!-- Senlin -->
<g id="node12" class="node"><title>Senlin</title>
<ellipse fill="none" stroke="black" cx="571.83" cy="-90" rx="33.5952" ry="18"/>
<text text-anchor="middle" x="571.83" y="-86.3" font-family="Times,serif" font-size="14.00">Senlin</text>
</g>
<!-- Aodh&#45;&gt;Senlin -->
<g id="edge1" class="edge"><title>Aodh&#45;&gt;Senlin</title>
<path fill="none" stroke="black" d="M971.593,-315.553C966.206,-313.345 960.412,-311.313 954.83,-310 890.033,-294.76 402.462,-322.462 356.83,-274 270.461,-182.275 393.483,-244.796 528.83,-139 537.689,-132.075 546.219,-123.19 553.314,-114.951"/>
<polygon fill="black" stroke="black" points="556.199,-116.955 559.889,-107.023 550.811,-112.486 556.199,-116.955"/>
</g>
<!-- Vitrage -->
<g id="node23" class="node"><title>Vitrage</title>
<ellipse fill="none" stroke="black" cx="271.83" cy="-173" rx="38.1938" ry="18"/>
<text text-anchor="middle" x="271.83" y="-169.3" font-family="Times,serif" font-size="14.00">Vitrage</text>
</g>
<!-- Aodh&#45;&gt;Vitrage -->
<g id="edge18" class="edge"><title>Aodh&#45;&gt;Vitrage</title>
<path fill="none" stroke="black" d="M971.596,-315.54C966.209,-313.332 960.414,-311.304 954.83,-310 886.445,-294.029 382.796,-312.14 323.83,-274 298.497,-257.614 284.816,-224.692 277.942,-201.096"/>
<polygon fill="black" stroke="black" points="281.291,-200.071 275.321,-191.317 274.529,-201.883 281.291,-200.071"/>
</g>
<!-- Gnocchi -->
<g id="node3" class="node"><title>Gnocchi</title>
<ellipse fill="none" stroke="black" cx="1086.83" cy="-328" rx="42.4939" ry="18"/>
<text text-anchor="middle" x="1086.83" y="-324.3" font-family="Times,serif" font-size="14.00">Gnocchi</text>
</g>
<!-- Gnocchi&#45;&gt;Watcher -->
<g id="edge6" class="edge"><title>Gnocchi&#45;&gt;Watcher</title>
<path fill="none" stroke="black" d="M1098.68,-345.509C1109.34,-359.22 1126.44,-376.672 1146.83,-381 1170.52,-386.028 1232.14,-386.028 1255.83,-381 1260.11,-380.091 1261.23,-379.497 1264.83,-377 1274.72,-370.135 1284.28,-361.054 1292.23,-352.576"/>
<polygon fill="black" stroke="black" points="1294.93,-354.806 1299.04,-345.041 1289.74,-350.111 1294.93,-354.806"/>
</g>
<!-- Ceilometer -->
<g id="node4" class="node"><title>Ceilometer</title>
<ellipse fill="none" stroke="black" cx="1199.83" cy="-328" rx="52.7911" ry="18"/>
<text text-anchor="middle" x="1199.83" y="-324.3" font-family="Times,serif" font-size="14.00">Ceilometer</text>
</g>
<!-- Ceilometer&#45;&gt;Monasca -->
<g id="edge60" class="edge"><title>Ceilometer&#45;&gt;Monasca</title>
<path fill="none" stroke="black" d="M1192.08,-310.055C1188.39,-301.973 1183.89,-292.121 1179.77,-283.112"/>
<polygon fill="black" stroke="black" points="1182.85,-281.429 1175.51,-273.789 1176.48,-284.339 1182.85,-281.429"/>
</g>
<!-- Nagios -->
<g id="node5" class="node"><title>Nagios</title>
<ellipse fill="none" stroke="black" cx="590.83" cy="-328" rx="37.0935" ry="18"/>
<text text-anchor="middle" x="590.83" y="-324.3" font-family="Times,serif" font-size="14.00">Nagios</text>
</g>
<!-- Nagios&#45;&gt;Vitrage -->
<g id="edge17" class="edge"><title>Nagios&#45;&gt;Vitrage</title>
<path fill="none" stroke="black" d="M554.12,-325.086C456.637,-319.632 196.982,-302.533 171.83,-274 158.899,-259.33 161.942,-246.871 171.83,-230 184.307,-208.712 208.161,-194.908 229.443,-186.332"/>
<polygon fill="black" stroke="black" points="230.855,-189.541 238.989,-182.752 228.397,-182.986 230.855,-189.541"/>
</g>
<!-- Zabbix -->
<g id="node6" class="node"><title>Zabbix</title>
<ellipse fill="none" stroke="black" cx="781.83" cy="-328" rx="36.2938" ry="18"/>
<text text-anchor="middle" x="781.83" y="-324.3" font-family="Times,serif" font-size="14.00">Zabbix</text>
</g>
<!-- Zabbix&#45;&gt;Vitrage -->
<g id="edge16" class="edge"><title>Zabbix&#45;&gt;Vitrage</title>
<path fill="none" stroke="black" d="M755.087,-315.461C749.171,-313.315 742.865,-311.333 736.83,-310 683.631,-298.252 284.912,-313.913 247.83,-274 229.032,-253.767 241.714,-221.474 254.696,-199.083"/>
<polygon fill="black" stroke="black" points="257.747,-200.802 259.998,-190.449 251.782,-197.139 257.747,-200.802"/>
</g>
<!-- collectd -->
<g id="node7" class="node"><title>collectd</title>
<ellipse fill="none" stroke="black" cx="686.83" cy="-328" rx="40.8928" ry="18"/>
<text text-anchor="middle" x="686.83" y="-324.3" font-family="Times,serif" font-size="14.00">collectd</text>
</g>
<!-- collectd&#45;&gt;Vitrage -->
<g id="edge20" class="edge"><title>collectd&#45;&gt;Vitrage</title>
<path fill="none" stroke="black" d="M657.019,-315.544C650.451,-313.393 643.472,-311.387 636.83,-310 590.223,-300.265 242.052,-309.053 209.83,-274 196.596,-259.603 201.89,-247.871 209.83,-230 216.338,-215.353 228.779,-202.917 240.819,-193.512"/>
<polygon fill="black" stroke="black" points="243.024,-196.235 249.012,-187.495 238.88,-190.593 243.024,-196.235"/>
</g>
<!-- Prometheus -->
<g id="node8" class="node"><title>Prometheus</title>
<ellipse fill="none" stroke="black" cx="890.83" cy="-328" rx="54.6905" ry="18"/>
<text text-anchor="middle" x="890.83" y="-324.3" font-family="Times,serif" font-size="14.00">Prometheus</text>
</g>
<!-- Prometheus&#45;&gt;Vitrage -->
<g id="edge21" class="edge"><title>Prometheus&#45;&gt;Vitrage</title>
<path fill="none" stroke="black" d="M851.828,-315.36C843.634,-313.276 834.998,-311.344 826.83,-310 767.385,-300.221 329.948,-315.024 285.83,-274 266.325,-255.862 265.041,-224.029 267.22,-201.147"/>
<polygon fill="black" stroke="black" points="270.717,-201.389 268.458,-191.038 263.768,-200.539 270.717,-201.389"/>
</g>
<!-- Congress&#45;&gt;Monasca -->
<g id="edge47" class="edge"><title>Congress&#45;&gt;Monasca</title>
<path fill="none" stroke="black" d="M1110.83,-190.968C1119.02,-202.792 1131.61,-218.713 1142.97,-231.722"/>
<polygon fill="black" stroke="black" points="1140.56,-234.271 1149.84,-239.382 1145.77,-229.599 1140.56,-234.271"/>
</g>
<!-- Congress&#45;&gt;Aodh -->
<g id="edge39" class="edge"><title>Congress&#45;&gt;Aodh</title>
<path fill="none" stroke="black" d="M1090.97,-190.795C1071.83,-217.914 1034.04,-271.459 1011.96,-302.727"/>
<polygon fill="black" stroke="black" points="1009.09,-300.727 1006.18,-310.915 1014.81,-304.764 1009.09,-300.727"/>
</g>
<!-- Mistral -->
<g id="node11" class="node"><title>Mistral</title>
<ellipse fill="none" stroke="black" cx="659.83" cy="-90" rx="36.2938" ry="18"/>
<text text-anchor="middle" x="659.83" y="-86.3" font-family="Times,serif" font-size="14.00">Mistral</text>
</g>
<!-- Congress&#45;&gt;Mistral -->
<g id="edge42" class="edge"><title>Congress&#45;&gt;Mistral</title>
<path fill="none" stroke="black" d="M1077.57,-157.938C1068.47,-153.58 1057.95,-149.316 1047.83,-147 1010.67,-138.496 739.631,-154.561 704.83,-139 693.653,-134.002 683.946,-124.775 676.439,-115.735"/>
<polygon fill="black" stroke="black" points="679.058,-113.4 670.183,-107.614 673.513,-117.672 679.058,-113.4"/>
</g>
<!-- Congress&#45;&gt;Mistral -->
<g id="edge50" class="edge"><title>Congress&#45;&gt;Mistral</title>
<path fill="none" stroke="black" d="M1089.9,-155.582C1082.66,-152.094 1074.11,-148.895 1065.83,-147 1028.67,-138.496 757.631,-154.561 722.83,-139 709.908,-133.222 698.952,-121.79 689.044,-111.532"/>
<polygon fill="black" stroke="black" points="691.508,-109.046 682.002,-104.368 686.516,-113.953 691.508,-109.046"/>
</g>
<!-- nova&#45;api -->
<g id="node18" class="node"><title>nova&#45;api</title>
<ellipse fill="none" stroke="black" cx="775.83" cy="-18" rx="42.4939" ry="18"/>
<text text-anchor="middle" x="775.83" y="-14.3" font-family="Times,serif" font-size="14.00">nova&#45;api</text>
</g>
<!-- Congress&#45;&gt;nova&#45;api -->
<g id="edge40" class="edge"><title>Congress&#45;&gt;nova&#45;api</title>
<path fill="none" stroke="black" d="M1107.8,-154.884C1113.52,-131.207 1119.46,-88.6052 1096.83,-64 1061.63,-25.7157 909.906,-19.2567 828.283,-18.6239"/>
<polygon fill="black" stroke="black" points="828.228,-15.1236 818.21,-18.5726 828.192,-22.1235 828.228,-15.1236"/>
</g>
<!-- Ironic -->
<g id="node21" class="node"><title>Ironic</title>
<ellipse fill="none" stroke="black" cx="1428.83" cy="-256" rx="32.4942" ry="18"/>
<text text-anchor="middle" x="1428.83" y="-252.3" font-family="Times,serif" font-size="14.00">Ironic</text>
</g>
<!-- Congress&#45;&gt;Ironic -->
<g id="edge45" class="edge"><title>Congress&#45;&gt;Ironic</title>
<path fill="none" stroke="black" d="M1145.61,-179.309C1199.98,-186.469 1295.76,-201.714 1373.83,-230 1380.76,-232.512 1387.92,-235.942 1394.75,-239.457"/>
<polygon fill="black" stroke="black" points="1393.33,-242.665 1403.81,-244.223 1396.59,-236.47 1393.33,-242.665"/>
</g>
<!-- Cinder -->
<g id="node22" class="node"><title>Cinder</title>
<ellipse fill="none" stroke="black" cx="1304.83" cy="-256" rx="36.2938" ry="18"/>
<text text-anchor="middle" x="1304.83" y="-252.3" font-family="Times,serif" font-size="14.00">Cinder</text>
</g>
<!-- Congress&#45;&gt;Cinder -->
<g id="edge43" class="edge"><title>Congress&#45;&gt;Cinder</title>
<path fill="none" stroke="black" d="M1136.2,-185.253C1167.83,-195.157 1215.96,-210.95 1255.83,-230 1260.51,-232.237 1265.33,-234.899 1270.06,-237.638"/>
<polygon fill="black" stroke="black" points="1268.61,-240.845 1279,-242.909 1272.16,-234.815 1268.61,-240.845"/>
</g>
<!-- Neutron -->
<g id="node24" class="node"><title>Neutron</title>
<ellipse fill="none" stroke="black" cx="496.83" cy="-256" rx="40.8928" ry="18"/>
<text text-anchor="middle" x="496.83" y="-252.3" font-family="Times,serif" font-size="14.00">Neutron</text>
</g>
<!-- Congress&#45;&gt;Neutron -->
<g id="edge41" class="edge"><title>Congress&#45;&gt;Neutron</title>
<path fill="none" stroke="black" d="M1083.33,-189.296C1071.56,-200.687 1056.1,-215.366 1038.83,-222 986.339,-242.159 587.148,-215.466 532.83,-230 528.654,-231.118 524.449,-232.705 520.436,-234.546"/>
<polygon fill="black" stroke="black" points="518.771,-231.467 511.526,-239.197 522.01,-237.672 518.771,-231.467"/>
</g>
<!-- Swift -->
<g id="node28" class="node"><title>Swift</title>
<ellipse fill="none" stroke="black" cx="1173.83" cy="-90" rx="29.795" ry="18"/>
<text text-anchor="middle" x="1173.83" y="-86.3" font-family="Times,serif" font-size="14.00">Swift</text>
</g>
<!-- Congress&#45;&gt;Swift -->
<g id="edge44" class="edge"><title>Congress&#45;&gt;Swift</title>
<path fill="none" stroke="black" d="M1111.95,-155.217C1121.5,-142.744 1136.35,-125.637 1149.22,-112.216"/>
<polygon fill="black" stroke="black" points="1151.99,-114.386 1156.51,-104.802 1147,-109.478 1151.99,-114.386"/>
</g>
<!-- Keystone -->
<g id="node29" class="node"><title>Keystone</title>
<ellipse fill="none" stroke="black" cx="1267.83" cy="-90" rx="46.2923" ry="18"/>
<text text-anchor="middle" x="1267.83" y="-86.3" font-family="Times,serif" font-size="14.00">Keystone</text>
</g>
<!-- Congress&#45;&gt;Keystone -->
<g id="edge46" class="edge"><title>Congress&#45;&gt;Keystone</title>
<path fill="none" stroke="black" d="M1140.51,-162.876C1160.15,-157.664 1184.02,-149.939 1203.83,-139 1216.3,-132.117 1228.41,-122.029 1238.85,-112.876"/>
<polygon fill="black" stroke="black" points="1241.31,-115.374 1246.48,-106.127 1236.67,-110.131 1241.31,-115.374"/>
</g>
<!-- Murano -->
<g id="node30" class="node"><title>Murano</title>
<ellipse fill="none" stroke="black" cx="1047.83" cy="-90" rx="39.7935" ry="18"/>
<text text-anchor="middle" x="1047.83" y="-86.3" font-family="Times,serif" font-size="14.00">Murano</text>
</g>
<!-- Congress&#45;&gt;Murano -->
<g id="edge48" class="edge"><title>Congress&#45;&gt;Murano</title>
<path fill="none" stroke="black" d="M1086.46,-155.997C1077.54,-144.793 1066.94,-129.582 1058.94,-116.692"/>
<polygon fill="black" stroke="black" points="1061.77,-114.604 1053.65,-107.806 1055.76,-118.188 1061.77,-114.604"/>
</g>
<!-- masakari&#45;engine -->
<g id="node10" class="node"><title>masakari&#45;engine</title>
<ellipse fill="none" stroke="black" cx="967.83" cy="-173" rx="71.4873" ry="18"/>
<text text-anchor="middle" x="967.83" y="-169.3" font-family="Times,serif" font-size="14.00">masakari&#45;engine</text>
</g>
<!-- masakari&#45;engine&#45;&gt;nova&#45;api -->
<g id="edge55" class="edge"><title>masakari&#45;engine&#45;&gt;nova&#45;api</title>
<path fill="none" stroke="black" d="M972.351,-154.77C977.375,-131.348 982.216,-89.4695 960.83,-64 943.764,-43.6753 875.319,-31.1429 826.665,-24.624"/>
<polygon fill="black" stroke="black" points="826.975,-21.1351 816.609,-23.3236 826.078,-28.0773 826.975,-21.1351"/>
</g>
<!-- Mistral&#45;&gt;Congress -->
<g id="edge35" class="edge"><title>Mistral&#45;&gt;Congress</title>
<path fill="none" stroke="black" d="M655.346,-108.092C660.488,-119.12 672.44,-132.565 686.83,-139 721.631,-154.561 992.669,-138.496 1029.83,-147 1039.34,-149.176 1049.2,-153.07 1058.76,-157.147"/>
<polygon fill="black" stroke="black" points="1057.63,-160.473 1068.2,-161.228 1060.41,-154.047 1057.63,-160.473"/>
</g>
<!-- Senlin&#45;&gt;nova&#45;api -->
<g id="edge4" class="edge"><title>Senlin&#45;&gt;nova&#45;api</title>
<path fill="none" stroke="black" d="M592.712,-75.4304C599.569,-71.3674 607.352,-67.1579 614.83,-64 651.902,-48.3444 696.046,-36.4466 728.727,-28.8287"/>
<polygon fill="black" stroke="black" points="729.51,-32.24 738.48,-26.6025 727.952,-25.4155 729.51,-32.24"/>
</g>
<!-- Pacemaker -->
<g id="node13" class="node"><title>Pacemaker</title>
<ellipse fill="none" stroke="black" cx="765.83" cy="-90" rx="51.9908" ry="18"/>
<text text-anchor="middle" x="765.83" y="-86.3" font-family="Times,serif" font-size="14.00">Pacemaker</text>
</g>
<!-- masakari&#45;monitors -->
<g id="node31" class="node"><title>masakari&#45;monitors</title>
<ellipse fill="none" stroke="black" cx="776.83" cy="-173" rx="79.0865" ry="18"/>
<text text-anchor="middle" x="776.83" y="-169.3" font-family="Times,serif" font-size="14.00">masakari&#45;monitors</text>
</g>
<!-- Pacemaker&#45;&gt;masakari&#45;monitors -->
<g id="edge53" class="edge"><title>Pacemaker&#45;&gt;masakari&#45;monitors</title>
<path fill="none" stroke="black" d="M762.526,-108.153C762.818,-118.78 764.443,-132.663 766.715,-144.768"/>
<polygon fill="black" stroke="black" points="763.35,-145.773 768.861,-154.822 770.196,-144.312 763.35,-145.773"/>
</g>
<!-- Heat -->
<g id="node14" class="node"><title>Heat</title>
<ellipse fill="none" stroke="black" cx="362.83" cy="-90" rx="28.6953" ry="18"/>
<text text-anchor="middle" x="362.83" y="-86.3" font-family="Times,serif" font-size="14.00">Heat</text>
</g>
<!-- Heat&#45;&gt;Vitrage -->
<g id="edge14" class="edge"><title>Heat&#45;&gt;Vitrage</title>
<path fill="none" stroke="black" d="M352.78,-106.898C345.97,-116.874 336.324,-129.584 325.83,-139 319.735,-144.469 312.612,-149.55 305.576,-154.007"/>
<polygon fill="black" stroke="black" points="303.553,-151.14 296.795,-159.299 307.166,-157.135 303.553,-151.14"/>
</g>
<!-- Freezer&#45;DR&#45;&gt;nova&#45;api -->
<g id="edge59" class="edge"><title>Freezer&#45;DR&#45;&gt;nova&#45;api</title>
<path fill="none" stroke="black" d="M496.647,-75.1816C506.792,-71.1532 518.157,-67.0264 528.83,-64 595.72,-45.0328 675.149,-32.2314 725.521,-25.2758"/>
<polygon fill="black" stroke="black" points="726.066,-28.734 735.505,-23.9214 725.125,-21.7976 726.066,-28.734"/>
</g>
<!-- Zaqar -->
<g id="node16" class="node"><title>Zaqar</title>
<ellipse fill="none" stroke="black" cx="571.83" cy="-173" rx="32.4942" ry="18"/>
<text text-anchor="middle" x="571.83" y="-169.3" font-family="Times,serif" font-size="14.00">Zaqar</text>
</g>
<!-- Zaqar&#45;&gt;Senlin -->
<g id="edge2" class="edge"><title>Zaqar&#45;&gt;Senlin</title>
<path fill="none" stroke="black" d="M571.83,-154.822C571.83,-144.19 571.83,-130.306 571.83,-118.204"/>
<polygon fill="black" stroke="black" points="575.33,-118.153 571.83,-108.153 568.33,-118.153 575.33,-118.153"/>
</g>
<!-- webhook -->
<g id="node17" class="node"><title>webhook</title>
<ellipse fill="none" stroke="black" cx="271.83" cy="-90" rx="44.6926" ry="18"/>
<text text-anchor="middle" x="271.83" y="-86.3" font-family="Times,serif" font-size="14.00">webhook</text>
</g>
<!-- webhook&#45;&gt;Senlin -->
<g id="edge3" class="edge"><title>webhook&#45;&gt;Senlin</title>
<path fill="none" stroke="black" d="M283.408,-107.53C293.843,-121.253 310.627,-138.713 330.83,-143 351.373,-147.359 499.288,-147.359 519.83,-143 535.152,-139.748 547.644,-127.644 556.54,-115.822"/>
<polygon fill="black" stroke="black" points="559.56,-117.61 562.372,-107.395 553.803,-113.626 559.56,-117.61"/>
</g>
<!-- Watcher&#45;&gt;nova&#45;api -->
<g id="edge8" class="edge"><title>Watcher&#45;&gt;nova&#45;api</title>
<path fill="none" stroke="black" d="M1355.08,-325.64C1392.09,-321.936 1443.91,-310.107 1469.83,-274 1539.09,-177.522 1462.88,-134.097 1322.83,-64 1237.03,-21.0577 947.732,-17.8296 828.188,-18.4069"/>
<polygon fill="black" stroke="black" points="828.157,-14.9069 818.178,-18.4662 828.198,-21.9068 828.157,-14.9069"/>
</g>
<!-- Watcher&#45;&gt;Ironic -->
<g id="edge9" class="edge"><title>Watcher&#45;&gt;Ironic</title>
<path fill="none" stroke="black" d="M1336.3,-312.834C1354.36,-301.936 1379.45,-286.801 1398.94,-275.037"/>
<polygon fill="black" stroke="black" points="1400.98,-277.896 1407.73,-269.732 1397.36,-271.902 1400.98,-277.896"/>
</g>
<!-- Watcher&#45;&gt;Cinder -->
<g id="edge10" class="edge"><title>Watcher&#45;&gt;Cinder</title>
<path fill="none" stroke="black" d="M1310.85,-309.697C1309.97,-301.983 1308.91,-292.712 1307.93,-284.112"/>
<polygon fill="black" stroke="black" points="1311.4,-283.642 1306.78,-274.104 1304.44,-284.437 1311.4,-283.642"/>
</g>
<!-- Nova -->
<g id="node20" class="node"><title>Nova</title>
<ellipse fill="none" stroke="black" cx="710.83" cy="-403" rx="30.5947" ry="18"/>
<text text-anchor="middle" x="710.83" y="-399.3" font-family="Times,serif" font-size="14.00">Nova</text>
</g>
<!-- Nova&#45;&gt;Congress -->
<g id="edge28" class="edge"><title>Nova&#45;&gt;Congress</title>
<path fill="none" stroke="black" d="M741.702,-402.112C863.434,-402.376 1306.34,-401.622 1363.83,-377 1424.21,-351.138 1444.26,-334.507 1469.83,-274 1477.44,-255.987 1482.57,-244.834 1469.83,-230 1430.36,-184.053 1251.02,-175.388 1158.47,-174.027"/>
<polygon fill="black" stroke="black" points="1158.48,-170.527 1148.44,-173.904 1158.39,-177.527 1158.48,-170.527"/>
</g>
<!-- Nova&#45;&gt;Freezer&#45;DR -->
<g id="edge57" class="edge"><title>Nova&#45;&gt;Freezer&#45;DR</title>
<path fill="none" stroke="black" d="M680.133,-402.222C585.581,-402.632 299.802,-401.736 210.83,-377 117.532,-351.061 68.5514,-357.097 18.8301,-274 -58.796,-144.266 125.813,-168.542 224.83,-147 263.087,-138.677 363.978,-152.221 400.83,-139 415.663,-133.679 429.919,-123.645 441.197,-114.122"/>
<polygon fill="black" stroke="black" points="443.678,-116.601 448.848,-107.353 439.039,-111.358 443.678,-116.601"/>
</g>
<!-- Nova&#45;&gt;Watcher -->
<g id="edge7" class="edge"><title>Nova&#45;&gt;Watcher</title>
<path fill="none" stroke="black" d="M741.401,-401.907C850.525,-401.398 1216.93,-398.119 1264.83,-377 1276.51,-371.852 1286.89,-362.471 1294.99,-353.36"/>
<polygon fill="black" stroke="black" points="1297.79,-355.463 1301.49,-345.535 1292.41,-350.989 1297.79,-355.463"/>
</g>
<!-- Nova&#45;&gt;Vitrage -->
<g id="edge11" class="edge"><title>Nova&#45;&gt;Vitrage</title>
<path fill="none" stroke="black" d="M680.509,-399.854C574.671,-391.667 224.555,-358.489 159.83,-274 147.938,-258.476 149.549,-246.635 159.83,-230 174.596,-206.107 202.985,-192.068 227.485,-184.021"/>
<polygon fill="black" stroke="black" points="228.794,-187.282 237.345,-181.027 226.759,-180.584 228.794,-187.282"/>
</g>
<!-- Ironic&#45;&gt;Congress -->
<g id="edge33" class="edge"><title>Ironic&#45;&gt;Congress</title>
<path fill="none" stroke="black" d="M1413.3,-240.091C1406.78,-236.358 1399.18,-232.663 1391.83,-230 1313.13,-201.484 1216.42,-186.222 1157.13,-179.136"/>
<polygon fill="black" stroke="black" points="1157.2,-175.621 1146.87,-177.947 1156.4,-182.575 1157.2,-175.621"/>
</g>
<!-- Cinder&#45;&gt;Congress -->
<g id="edge30" class="edge"><title>Cinder&#45;&gt;Congress</title>
<path fill="none" stroke="black" d="M1290.41,-239.281C1285.25,-235.976 1279.45,-232.683 1273.83,-230 1234.24,-211.085 1186.51,-195.382 1151.44,-185.465"/>
<polygon fill="black" stroke="black" points="1152.01,-181.992 1141.44,-182.7 1150.15,-188.739 1152.01,-181.992"/>
</g>
<!-- Cinder&#45;&gt;Vitrage -->
<g id="edge13" class="edge"><title>Cinder&#45;&gt;Vitrage</title>
<path fill="none" stroke="black" d="M1286.33,-240.498C1279.89,-236.276 1272.38,-232.208 1264.83,-230 1225.69,-218.544 571.418,-225.952 530.83,-222 454.182,-214.536 366.302,-196.122 315.132,-184.393"/>
<polygon fill="black" stroke="black" points="315.627,-180.915 305.095,-182.07 314.048,-187.735 315.627,-180.915"/>
</g>
<!-- Vitrage&#45;&gt;Congress -->
<g id="edge26" class="edge"><title>Vitrage&#45;&gt;Congress</title>
<path fill="none" stroke="black" d="M305.408,-181.709C355.416,-194.184 452.616,-216.534 536.83,-224.667 550.793,-226.015 1028.11,-227.579 1041.83,-224.667 1058.16,-221.202 1072.6,-209.593 1083.34,-198.254"/>
<polygon fill="black" stroke="black" points="1086.14,-200.36 1090.15,-190.551 1080.9,-195.723 1086.14,-200.36"/>
</g>
<!-- Vitrage&#45;&gt;Congress -->
<g id="edge36" class="edge"><title>Vitrage&#45;&gt;Congress</title>
<path fill="none" stroke="black" d="M305.306,-181.941C356.167,-195.015 456.163,-218.731 542.83,-227.333 556.458,-228.686 1022.43,-230.176 1035.83,-227.333 1054.27,-223.42 1070.78,-210.219 1082.79,-197.81"/>
<polygon fill="black" stroke="black" points="1085.51,-200.021 1089.67,-190.276 1080.34,-195.302 1085.51,-200.021"/>
</g>
<!-- Vitrage&#45;&gt;Mistral -->
<g id="edge23" class="edge"><title>Vitrage&#45;&gt;Mistral</title>
<path fill="none" stroke="black" d="M308.93,-167.781C357.827,-162.797 446.059,-154.265 521.83,-147 540.496,-145.21 588.997,-147.262 605.83,-139 617.366,-133.338 627.453,-123.382 635.901,-114.001"/>
<polygon fill="black" stroke="black" points="638.64,-116.186 642.608,-106.362 633.38,-111.567 638.64,-116.186"/>
</g>
<!-- Vitrage&#45;&gt;Mistral -->
<g id="edge49" class="edge"><title>Vitrage&#45;&gt;Mistral</title>
<path fill="none" stroke="black" d="M309.493,-168.908C361.608,-164.172 457.988,-154.847 539.83,-147 558.496,-145.21 606.997,-147.262 623.83,-139 634.289,-133.866 643.558,-125.203 650.354,-116.638"/>
<polygon fill="black" stroke="black" points="653.374,-118.429 656.28,-108.241 647.655,-114.394 653.374,-118.429"/>
</g>
<!-- Vitrage&#45;&gt;webhook -->
<g id="edge25" class="edge"><title>Vitrage&#45;&gt;webhook</title>
<path fill="none" stroke="black" d="M271.83,-154.822C271.83,-144.19 271.83,-130.306 271.83,-118.204"/>
<polygon fill="black" stroke="black" points="275.33,-118.153 271.83,-108.153 268.33,-118.153 275.33,-118.153"/>
</g>
<!-- Vitrage&#45;&gt;nova&#45;api -->
<g id="edge22" class="edge"><title>Vitrage&#45;&gt;nova&#45;api</title>
<path fill="none" stroke="black" d="M234.482,-168.65C196.347,-164.366 140.936,-155.449 127.83,-139 107.059,-112.93 105.091,-88.373 127.83,-64 168.117,-20.8188 576.334,-18.1747 723.388,-18.6399"/>
<polygon fill="black" stroke="black" points="723.503,-22.1403 733.516,-18.6783 723.53,-15.1403 723.503,-22.1403"/>
</g>
<!-- SNMP -->
<g id="node27" class="node"><title>SNMP</title>
<ellipse fill="none" stroke="black" cx="172.83" cy="-90" rx="36.2938" ry="18"/>
<text text-anchor="middle" x="172.83" y="-86.3" font-family="Times,serif" font-size="14.00">SNMP</text>
</g>
<!-- Vitrage&#45;&gt;SNMP -->
<g id="edge24" class="edge"><title>Vitrage&#45;&gt;SNMP</title>
<path fill="none" stroke="black" d="M247.512,-159.017C237.878,-153.403 226.948,-146.42 217.83,-139 208.968,-131.788 200.16,-122.883 192.718,-114.71"/>
<polygon fill="black" stroke="black" points="195.295,-112.341 186.044,-107.177 190.056,-116.983 195.295,-112.341"/>
</g>
<!-- Neutron&#45;&gt;Congress -->
<g id="edge29" class="edge"><title>Neutron&#45;&gt;Congress</title>
<path fill="none" stroke="black" d="M523.536,-242.096C532.04,-237.334 541.506,-232.495 550.83,-230 605.148,-215.466 1004.34,-242.159 1056.83,-222 1069.46,-217.15 1081.12,-208.001 1089.77,-198.98"/>
<polygon fill="black" stroke="black" points="1092.62,-201.037 1096.54,-191.197 1087.34,-196.441 1092.62,-201.037"/>
</g>
<!-- Neutron&#45;&gt;Freezer&#45;DR -->
<g id="edge58" class="edge"><title>Neutron&#45;&gt;Freezer&#45;DR</title>
<path fill="none" stroke="black" d="M493.466,-237.759C487.906,-209.263 476.756,-152.121 470.129,-118.157"/>
<polygon fill="black" stroke="black" points="473.5,-117.154 468.149,-108.01 466.629,-118.495 473.5,-117.154"/>
</g>
<!-- Neutron&#45;&gt;Vitrage -->
<g id="edge12" class="edge"><title>Neutron&#45;&gt;Vitrage</title>
<path fill="none" stroke="black" d="M471.999,-241.641C464.074,-237.634 455.19,-233.404 446.83,-230 402.406,-211.912 349.795,-195.753 313.94,-185.497"/>
<polygon fill="black" stroke="black" points="314.867,-182.122 304.292,-182.764 312.959,-188.857 314.867,-182.122"/>
</g>
<!-- K8s -->
<g id="node25" class="node"><title>K8s</title>
<ellipse fill="none" stroke="black" cx="54.8301" cy="-256" rx="27" ry="18"/>
<text text-anchor="middle" x="54.8301" y="-252.3" font-family="Times,serif" font-size="14.00">K8s</text>
</g>
<!-- K8s&#45;&gt;Vitrage -->
<g id="edge15" class="edge"><title>K8s&#45;&gt;Vitrage</title>
<path fill="none" stroke="black" d="M73.0904,-242.574C80.0123,-238.213 88.0928,-233.528 95.8301,-230 139.566,-210.058 192.43,-194.269 228.735,-184.607"/>
<polygon fill="black" stroke="black" points="229.728,-187.965 238.515,-182.046 227.954,-181.194 229.728,-187.965"/>
</g>
<!-- Doctor -->
<g id="node26" class="node"><title>Doctor</title>
<ellipse fill="none" stroke="black" cx="401.83" cy="-256" rx="36.2938" ry="18"/>
<text text-anchor="middle" x="401.83" y="-252.3" font-family="Times,serif" font-size="14.00">Doctor</text>
</g>
<!-- Doctor&#45;&gt;Congress -->
<g id="edge32" class="edge"><title>Doctor&#45;&gt;Congress</title>
<path fill="none" stroke="black" d="M422.424,-240.761C429.788,-236.445 438.366,-232.253 446.83,-230 479.098,-221.409 1016.64,-233.932 1047.83,-222 1061.09,-216.926 1073.28,-207.098 1082.8,-197.65"/>
<polygon fill="black" stroke="black" points="1085.47,-199.913 1089.82,-190.252 1080.4,-195.092 1085.47,-199.913"/>
</g>
<!-- Doctor&#45;&gt;Vitrage -->
<g id="edge19" class="edge"><title>Doctor&#45;&gt;Vitrage</title>
<path fill="none" stroke="black" d="M380.071,-241.442C358.92,-228.264 326.591,-208.12 302.768,-193.277"/>
<polygon fill="black" stroke="black" points="304.434,-190.191 294.096,-187.873 300.732,-196.132 304.434,-190.191"/>
</g>
<!-- Swift&#45;&gt;Congress -->
<g id="edge31" class="edge"><title>Swift&#45;&gt;Congress</title>
<path fill="none" stroke="black" d="M1165,-107.404C1155.88,-119.362 1141.74,-135.723 1129.16,-148.987"/>
<polygon fill="black" stroke="black" points="1126.43,-146.77 1121.98,-156.382 1131.45,-151.646 1126.43,-146.77"/>
</g>
<!-- Keystone&#45;&gt;Congress -->
<g id="edge34" class="edge"><title>Keystone&#45;&gt;Congress</title>
<path fill="none" stroke="black" d="M1259.69,-108.184C1250.64,-118.405 1236.48,-130.914 1221.83,-139 1201.25,-150.366 1176.28,-158.264 1154.46,-163.476"/>
<polygon fill="black" stroke="black" points="1153.67,-160.067 1144.68,-165.685 1155.21,-166.895 1153.67,-160.067"/>
</g>
<!-- Murano&#45;&gt;Congress -->
<g id="edge38" class="edge"><title>Murano&#45;&gt;Congress</title>
<path fill="none" stroke="black" d="M1063.81,-106.51C1072.79,-117.737 1083.57,-133.171 1091.67,-146.236"/>
<polygon fill="black" stroke="black" points="1088.67,-148.033 1096.8,-154.822 1094.68,-144.442 1088.67,-148.033"/>
</g>
<!-- masakari&#45;monitors&#45;&gt;Pacemaker -->
<g id="edge52" class="edge"><title>masakari&#45;monitors&#45;&gt;Pacemaker</title>
<path fill="none" stroke="black" d="M780.133,-154.822C779.837,-144.118 778.191,-130.118 775.894,-117.958"/>
<polygon fill="black" stroke="black" points="779.25,-116.916 773.725,-107.876 772.406,-118.388 779.25,-116.916"/>
</g>
<!-- masakari&#45;api -->
<g id="node32" class="node"><title>masakari&#45;api</title>
<ellipse fill="none" stroke="black" cx="893.83" cy="-90" rx="57.6901" ry="18"/>
<text text-anchor="middle" x="893.83" y="-86.3" font-family="Times,serif" font-size="14.00">masakari&#45;api</text>
</g>
<!-- masakari&#45;monitors&#45;&gt;masakari&#45;api -->
<g id="edge51" class="edge"><title>masakari&#45;monitors&#45;&gt;masakari&#45;api</title>
<path fill="none" stroke="black" d="M803.539,-155.994C812.043,-150.733 821.422,-144.755 829.83,-139 841.703,-130.874 854.447,-121.464 865.413,-113.14"/>
<polygon fill="black" stroke="black" points="867.591,-115.881 873.408,-107.026 863.339,-110.321 867.591,-115.881"/>
</g>
<!-- masakari&#45;api&#45;&gt;masakari&#45;engine -->
<g id="edge54" class="edge"><title>masakari&#45;api&#45;&gt;masakari&#45;engine</title>
<path fill="none" stroke="black" d="M908.89,-107.485C919.414,-119.004 933.645,-134.582 945.487,-147.544"/>
<polygon fill="black" stroke="black" points="943.168,-150.195 952.497,-155.217 948.336,-145.473 943.168,-150.195"/>
</g>
</g>
</svg>
